<svg xmlns="http://www.w3.org/2000/svg" xmlns:xlink="http://www.w3.org/1999/xlink" width="100" height="100" viewbox="0 0 100 100" >
<ellipse cx="0.0" cy="0.0" rx="10" ry="20" style="stroke-width:1pt;stroke:#f00;fill:none;" transform=""/>
<ellipse cx="0.0" cy="0.0" rx="10" ry="20" style="stroke-width:1pt;stroke:#f00;fill:none;" transform="translate(0.0,0), rotate(90)"/>
<ellipse cx="42.0" cy="0.0" rx="10" ry="20" style="stroke-width:1pt;stroke:#f00;fill:none;" transform=""/>
<ellipse cx="0.0" cy="0.0" rx="10" ry="20" style="stroke-width:1pt;stroke:#f00;fill:none;" transform="translate(42.0,0), rotate(90)"/>
<ellipse cx="84.0" cy="0.0" rx="10" ry="20" style="stroke-width:1pt;stroke:#f00;fill:none;" transform=""/>
<ellipse cx="0.0" cy="0.0" rx="10" ry="20" style="stroke-width:1pt;stroke:#f00;fill:none;" transform="translate(84.0,0), rotate(90)"/>
<ellipse cx="126.00000000000001" cy="0.0" rx="10" ry="20" style="stroke-width:1pt;stroke:#f00;fill:none;" transform=""/>
<ellipse cx="0.0" cy="0.0" rx="10" ry="20" style="stroke-width:1pt;stroke:#f00;fill:none;" transform="translate(126.00000000000001,0), rotate(90)"/>
<ellipse cx="168.0" cy="0.0" rx="10" ry="20" style="stroke-width:1pt;stroke:#f00;fill:none;" transform=""/>
<ellipse cx="0.0" cy="0.0" rx="10" ry="20" style="stroke-width:1pt;stroke:#f00;fill:none;" transform="translate(168.0,0), rotate(90)"/>
<ellipse cx="210.0" cy="0.0" rx="10" ry="20" style="stroke-width:1pt;stroke:#f00;fill:none;" transform=""/>
<ellipse cx="0.0" cy="0.0" rx="10" ry="20" style="stroke-width:1pt;stroke:#f00;fill:none;" transform="translate(210.0,0), rotate(90)"/>
<ellipse cx="252.00000000000003" cy="0.0" rx="10" ry="20" style="stroke-width:1pt;stroke:#f00;fill:none;" transform=""/>
<ellipse cx="0.0" cy="0.0" rx="10" ry="20" style="stroke-width:1pt;stroke:#f00;fill:none;" transform="translate(252.00000000000003,0), rotate(90)"/>
<ellipse cx="294.0" cy="0.0" rx="10" ry="20" style="stroke-width:1pt;stroke:#f00;fill:none;" transform=""/>
<ellipse cx="0.0" cy="0.0" rx="10" ry="20" style="stroke-width:1pt;stroke:#f00;fill:none;" transform="translate(294.0,0), rotate(90)"/>
<ellipse cx="336.0" cy="0.0" rx="10" ry="20" style="stroke-width:1pt;stroke:#f00;fill:none;" transform=""/>
<ellipse cx="0.0" cy="0.0" rx="10" ry="20" style="stroke-width:1pt;stroke:#f00;fill:none;" transform="translate(336.0,0), rotate(90)"/>
<ellipse cx="378.00000000000006" cy="0.0" rx="10" ry="20" style="stroke-width:1pt;stroke:#f00;fill:none;" transform=""/>
<ellipse cx="0.0" cy="0.0" rx="10" ry="20" style="stroke-width:1pt;stroke:#f00;fill:none;" transform="translate(378.00000000000006,0), rotate(90)"/>

</svg>