<?xml version="1.0" encoding="UTF-8" standalone="no"?>
<svg
   xmlns:dc="http://purl.org/dc/elements/1.1/"
   xmlns:cc="http://creativecommons.org/ns#"
   xmlns:rdf="http://www.w3.org/1999/02/22-rdf-syntax-ns#"
   xmlns:svg="http://www.w3.org/2000/svg"
   xmlns="http://www.w3.org/2000/svg"
   xmlns:sodipodi="http://sodipodi.sourceforge.net/DTD/sodipodi-0.dtd"
   xmlns:inkscape="http://www.inkscape.org/namespaces/inkscape"
   width="29.316858mm"
   height="29.229273mm"
   viewbox="0 0 100 100"
   version="1.1"
   id="svg3725"
   sodipodi:docname="flower-mix.svg"
   inkscape:version="0.92.4 (5da689c313, 2019-01-14)">
  <metadata
     id="metadata3731">
    <rdf:RDF>
      <cc:Work
         rdf:about="">
        <dc:format>image/svg+xml</dc:format>
        <dc:type
           rdf:resource="http://purl.org/dc/dcmitype/StillImage" />
        <dc:title></dc:title>
      </cc:Work>
    </rdf:RDF>
  </metadata>
  <defs
     id="defs3729" />
  <sodipodi:namedview
     pagecolor="#ffffff"
     bordercolor="#666666"
     borderopacity="1"
     objecttolerance="10"
     gridtolerance="10"
     guidetolerance="10"
     inkscape:pageopacity="0"
     inkscape:pageshadow="2"
     inkscape:window-width="2327"
     inkscape:window-height="1511"
     id="namedview3727"
     showgrid="false"
     fit-margin-top="5"
     fit-margin-left="5"
     fit-margin-right="5"
     fit-margin-bottom="5"
     inkscape:zoom="6.4399583"
     inkscape:cx="-3.724212"
     inkscape:cy="65.556256"
     inkscape:window-x="0"
     inkscape:window-y="0"
     inkscape:window-maximized="0"
     inkscape:current-layer="svg3725" />
  <path
     d="m 90.208234,54.503982 0.315828,1.1 -1.17,1.06 0.18,1.1 -1.45,0.92 -1.92,0.75 -1.06,0.81 -2.09,0.5 -2.8,0.21 -2.27,0.21 -3.82,-0.49 -1.31,0.21 -4.43,-1.14 -1.95,-0.31 -2.94,-0.96 -4.22,-1.84 -2.37,-1.14 -3.09,-1.73 -2.23,-1.49 -3.58,-2.59 -2.19,-1.91 -2.24,-2.2 -1.2,-1.59 -2.2,-2.63 -0.95,-1.77 -2.24,-3.19 -0.81,-2.05 -0.18,-1.49 -0.88,-2.48 0.56,-0.92 -0.28,-2.090001 0.21,-1.56 0.29,-1.56 1.06,-0.43 0.88,-0.7 1.28,0.07 1.59,0.78 0.96,-0.5 1.77,1.6 h 1.07 l 1.94,2.79 1.32,1.420001 1.34,1.92 1.1,1.48 1.38,3.48 0.89,1.91 1.06,4.04 0.6,2.27 0.5,2.94 0.35,4.36 0.11,3.01 -0.11,2.65 -0.24,3.05 -0.61,4.04 -0.71,3.12 -0.88,3.08 -1.06,2.77 -1.28,3.08 -1.28,2.02 -1.02,0.74 -1.95,3.37 -1.24,0.74 -1.6,1.46 -1.31,0.39 -1.59,0.99 -0.68,-1.14 -1.77,0.96 -0.28,-1.7 -1.1,-0.32 -0.67,-0.96 -0.25,-1.48 v -1.71 l 0.35,-2.05 v -1.42 l 0.82,-2.19 0.46,-1.67 1.31,-2.3 1.84,-2.63 2.34,-2.72 0.75,-1.21 2.19,-2.2 3.58,-2.87 1.77,-1.38 3.41,-2.19 3.33,-1.88 2.58,-1.24 2.8,-1.1 2.52,-0.78 3.51,-1.03 3.82,-0.85 2.41,-0.18 2.73,-0.1 1.52,0.39 2.55,0.25 2.17,0.46 1.98,0.63 2.09,0.75 0.71,0.96 1.35,0.99 -0.22,1.13 0.46,1.1"
     style="fill:#2aaacc;fill-opacity:1;stroke:#000000;stroke-width:1.00000003pt"
     id="path3723"
     inkscape:connector-curvature="0" />
  <path
     inkscape:connector-curvature="0"
     d="m 86.825953,39.934214 1.076286,0.680084 -1.619135,1.958087 -0.911188,1.477138 -2.379658,1.947877 -3.802014,2.225554 -3.032323,1.689946 -4.27796,1.830616 -6.025056,1.939048 -4.27555,1.141781 -5.309698,1.082273 -6.556079,0.896448 -4.392761,0.244641 -6.014256,0.09612 -3.829973,-0.363699 -4.276807,-0.615972 -3.731021,-0.888585 -2.248319,-1.028572 -3.088004,-1.234315 -0.761004,-1.159687 -1.14323,-1.287759 0.744086,-1.018251 1.942926,-0.728794 1.972042,-0.586133 4.062396,0.07373 2.77237,-0.04431 4.344592,0.659618 5.483864,1.41966 4.364187,1.325736 5.666361,2.203939 4.194972,1.932256 5.372943,2.875062 4.292651,2.726837 4.252582,3.018204 3.061899,2.679417 3.880717,3.538507 2.053654,2.561349 1.944723,2.741997 1.454249,2.55751 -0.284485,1.23007 -0.892822,0.667283 -1.266209,0.252817 -0.698329,0.80283 -2.717181,-1.539911 -2.124116,-1.093175 -3.458001,-3.115884 -2.967527,-2.931396 -2.842639,-3.233063 -2.703909,-3.508116 -3.113232,-4.771823 -3.311389,-5.976287 -2.096797,-4.421305 -1.783788,-4.426308 -1.620943,-4.871708 -1.141097,-4.512615 -0.803586,-4.383828 -0.636128,-4.820358 0.442328,-1.988479 0.19978,-3.45165 0.851588,-1.288331 1.231885,0.678054 0.949922,-1.012595 1.252161,1.10711 1.290721,3.239975 1.07095,2.362364 0.927697,3.473887 0.690042,4.555605 0.420583,3.64748 0.01449,5.943996 -0.303524,5.635989 -0.59778,5.135276 -1.152703,6.235485 -1.237673,4.836886 -1.378997,4.110094 -1.753363,4.473893 -2.157199,4.672671 -1.889093,2.977706 -1.740153,1.942129 -1.696897,1.570204 -1.941762,1.641208 -0.826974,-0.809762 -1.092379,-0.344831 -0.300422,-1.726136 0.88543,-3.368681 0.478468,-2.525781 1.231813,-3.244509 2.166135,-4.113728 2.409955,-3.970023 2.368132,-3.508668 3.93517,-4.808434 3.380248,-3.708225 3.824218,-3.634811 4.068398,-3.468751 4.146161,-3.080868 4.798438,-3.127075 3.959948,-2.138623 2.585973,-0.792744 3.655187,-1.337611 2.322356,-0.216024 1.326972,0.47079 1.137483,0.648254"
     style="fill:#2aaacc;fill-opacity:1;stroke:#000000;stroke-width:1.00000003pt"
     id="path3743" />
  <path
     inkscape:connector-curvature="0"
     d="m 75.643213,26.124899 0.574854,1.096816 -0.412389,2.262662 -1.680732,3.498705 -3.28254,5.001772 -4.323033,5.493988 -5.157037,5.691304 -4.858711,4.777084 -5.598488,4.857266 -6.545544,5.024256 -5.322211,3.451503 -5.214812,2.879693 -4.559303,1.995832 -3.279506,0.865473 -1.444249,-0.413094 0.02639,-1.275541 1.011177,-1.757932 3.818839,-2.856129 3.893351,-2.596422 4.972296,-2.707689 7.0663,-3.048196 6.819628,-2.451831 8.470381,-2.455697 6.376274,-1.382795 6.714568,-1.011635 6.284399,-0.519337 5.07841,0.05232 4.058406,0.49784 2.06598,0.885058 -0.109115,1.132162 -2.593036,1.175234 -1.751637,1.019738 -6.02803,0.711039 -5.642096,0.33428 -6.5817,-0.06727 -6.814291,-0.571954 -7.626077,-1.103748 -7.445778,-1.58789 -8.174805,-2.220437 -5.147776,-1.99309 -5.187053,-2.337991 -3.909878,-2.261624 -0.708438,-1.411633 -0.60849,-1.4149 1.430458,-0.560977 3.198226,0.383846 4.263126,1.129495 5.222323,2.008664 5.055163,2.282265 6.699151,3.787423 6.614696,4.326466 6.033015,4.529553 6.603878,5.527458 4.333126,4.376941 3.278846,3.895084 2.825803,3.931887 1.456186,2.924042 -0.904519,0.61184 -1.248546,0.248879 -1.478699,-0.119814 -3.858101,-3.433938 -3.032411,-2.782536 -4.629517,-5.609928 -3.748097,-5.090411 -4.389286,-7.016512 -3.778959,-7.016429 -2.966367,-6.398614 -2.822888,-7.21373 -1.138936,-4.423191 -1.334555,-5.695487 -0.130605,-3.387542 0.791535,-1.130431 0.764522,-1.28363 1.888723,3.055998 1.555396,2.346498 1.664925,4.107859 1.678584,6.058456 1.499727,7.935287 0.90597,6.603956 0.499521,7.393637 0.04387,8.515104 -0.432597,6.179407 -0.875931,7.126375 -1.11804,4.368809 -1.358841,3.980457 -1.250365,1.541621 -1.288778,0.916537 -0.645225,-2.3562 -0.601026,-2.105511 0.425113,-5.366729 1.008506,-6.13017 1.587788,-6.713385 2.027691,-6.539647 2.797881,-7.343206 2.930474,-6.469066 3.576882,-6.712287 3.286661,-5.182003 3.934718,-5.497317 2.775956,-2.866108 2.329306,-1.652887 0.883858,0.655513"
     style="fill:#2aaacc;fill-opacity:1;stroke:#000000;stroke-width:1.00000003pt"
     id="path3778" />
  <path
     inkscape:connector-curvature="0"
     d="m 64.229551,21.114898 0.915319,0.834058 0.386354,2.267252 -0.382744,3.862551 -1.373872,5.822825 -2.183268,6.641223 -2.899489,7.111887 -2.931836,6.150768 -3.599575,6.479133 -4.432401,6.959964 -3.820759,5.063655 -3.915408,4.489598 -3.60173,3.434841 -2.785717,1.934936 -1.498437,0.10578 -0.411462,-1.207643 0.348948,-1.997758 2.61168,-3.990003 2.770526,-3.771444 3.746346,-4.245021 5.597604,-5.281184 5.569779,-4.636417 7.119657,-5.204641 5.518795,-3.480217 5.96363,-3.247144 5.72778,-2.637408 4.790038,-1.687754 3.983926,-0.92024 2.244093,0.125077 0.284696,1.101201 -2.034702,1.991229 -1.29723,1.557336 -5.421305,2.729865 -5.187506,2.243831 -6.207782,2.187861 -6.59896,1.793164 -7.543671,1.571088 -7.539833,1.054477 -8.441238,0.709419 -5.519004,-0.112248 -5.673877,-0.422916 -4.447604,-0.787975 -1.14852,-1.084201 -1.055718,-1.121455 1.152325,-1.016392 3.136632,-0.73316 4.392338,-0.396697 5.594383,0.101387 5.530881,0.41566 7.590517,1.267769 7.695518,1.803189 7.218378,2.192975 8.096118,2.935452 5.568808,2.630963 4.413304,2.538749 4.000172,2.728285 2.368449,2.249655 -0.640709,0.884305 -1.088128,0.660899 -1.430506,0.39314 -4.799908,-1.907285 -3.801219,-1.577582 -6.269032,-3.68822 -5.263081,-3.501497 -6.524368,-5.09214 -5.95082,-5.300807 -4.975928,-4.998173 -5.119889,-5.813203 -2.583069,-3.766902 -3.202042,-4.895562 -1.281335,-3.138578 0.357167,-1.332979 0.279388,-1.4677 2.820033,2.225718 2.264143,1.67301 2.969489,3.290687 3.649467,5.118977 4.12331,6.943793 3.110019,5.895829 2.998169,6.7769 2.953561,7.986575 1.706975,5.9547 1.614258,6.996189 0.443605,4.48773 0.08451,4.205156 -0.647694,1.876301 -0.89758,1.30205 -1.412183,-1.993424 -1.284906,-1.772969 -1.436054,-5.188473 -1.148955,-6.105406 -0.804081,-6.851573 -0.331284,-6.83877 0.117623,-7.857287 0.541194,-7.081215 1.065433,-7.530852 1.316101,-5.993595 1.817233,-6.511542 1.628279,-3.642692 1.623511,-2.349875 1.054755,0.313683"
     style="fill:#2aaacc;fill-opacity:1;stroke:#000000;stroke-width:1.00000003pt"
     id="path3778-3" />
</svg>
