<svg xmlns="http://www.w3.org/2000/svg" xmlns:xlink="http://www.w3.org/1999/xlink" width="100mm" height="100mm" viewbox="0 0 100 100" >
<path d="M-20.196849900000053,-34.804133007500205
L-19.842519200000055,-33.44881808000021
L-19.488188500000057,-32.11121968750022
L-19.133857800000058,-30.79133783000022
L-18.77952710000006,-29.489172507500218
L-18.42519640000006,-28.204723720000217
L-18.070865700000063,-26.937991467500222
L-17.716535000000064,-25.68897575000022
L-17.362204300000066,-24.457676567500226
L-17.007873600000064,-23.24409392000022
L-16.653542900000065,-22.048227807500226
L-16.299212200000067,-20.870078230000228
L-15.944881500000069,-19.709645187500225
L-15.59055080000007,-18.56692868000022
L-15.236220100000072,-17.441928707500225
L-14.881889400000073,-16.334645270000223
L-14.527558700000075,-15.245078367500227
L-14.173228000000076,-14.173228000000227
L-13.818897300000076,-13.11909416750023
L-13.464566600000078,-12.082676870000228
L-13.11023590000008,-11.063976107500228
L-12.75590520000008,-10.062991880000226
L-12.401574500000082,-9.079724187500226
L-12.047243800000084,-8.114173030000224
L-11.692913100000084,-7.166338407500223
L-11.338582400000085,-6.236220320000223
L-10.984251700000087,-5.323818767500222
L-10.629921000000088,-4.42913375000022
L-10.27559030000009,-3.5521652675002184
L-9.921259600000091,-2.6929133200002164
L-9.566928900000091,-1.851377907500217
L-9.212598200000093,-1.0275590300002142
L-8.858267500000094,-0.221456687500214
L-8.503936800000096,0.5669291199997897
L-8.149606100000097,1.3375983924997905
L-7.795275400000098,2.090551129999795
L-7.4409447000001,2.8257873324997966
L-7.0866140000001,3.5433069999997984
L-6.732283300000102,4.243110132499801
L-6.3779526000001034,4.925196729999803
L-6.023621900000104,5.589566792499807
L-5.669291200000106,6.23622031999981
L-5.314960500000107,6.865157312499813
L-4.960629800000108,7.476377769999815
L-4.6062991000001094,8.06988169249982
L-4.251968400000111,8.645669079999822
L-3.897637700000112,9.203739932499827
L-3.5433070000001132,9.74409424999983
L-3.1889763000001143,10.266732032499833
L-2.834645600000116,10.771653279999837
L-2.480314900000117,11.258857992499841
L-2.125984200000118,11.728346169999845
L-1.7716535000001197,12.18011781249985
L-1.4173228000001208,12.614172919999856
L-1.0629921000001221,13.030511492499858
L-0.7086614000001233,13.429133529999865
L-0.3543307000001246,13.81003903249987
L-1.2588355247089567e-13,14.173227999999874
L0.3543306999998729,14.518700432499879
L0.7086613999998715,14.846456329999885
L1.0629920999998703,15.15649569249989
L1.417322799999869,15.448818519999895
L1.7716534999998679,15.7234248124999
L2.1259841999998668,15.980314569999905
L2.480314899999865,16.219487792499915
L2.834645599999864,16.44094447999992
L3.188976299999863,16.644684632499924
L3.5433069999998614,16.83070824999993
L3.8976376999998603,16.999015332499937
L4.251968399999859,17.149605879999942
L4.606299099999858,17.28247989249995
L4.9606297999998565,17.397637369999956
L5.314960499999855,17.495078312499963
L5.669291199999854,17.574802719999973
L6.023621899999853,17.636810592499977
L6.377952599999851,17.681101929999986
L6.7322832999998505,17.70767673249999
L7.086613999999849,17.716535
L7.440944699999847,17.70767673250001
L7.795275399999847,17.681101930000015
L8.149606099999845,17.636810592500023
L8.503936799999844,17.574802720000033
L8.858267499999842,17.495078312500038
L9.21259819999984,17.397637370000048
L9.56692889999984,17.282479892500056
L9.92125959999984,17.149605880000067
L10.275590299999838,16.999015332500072
L10.629920999999836,16.830708250000082
L10.984251699999835,16.64468463250009
L11.338582399999833,16.4409444800001
L11.692913099999833,16.219487792500107
L12.047243799999832,15.980314570000118
L12.40157449999983,15.723424812500125
L12.755905199999829,15.448818520000136
L13.110235899999827,15.156495692500144
L13.464566599999825,14.846456330000155
L13.818897299999826,14.518700432500165
L14.173227999999824,14.173228000000176
L14.527558699999823,13.810039032500185
L14.881889399999821,13.429133530000195
L15.23622009999982,13.030511492500208
L15.590550799999818,12.614172920000218
L15.944881499999818,12.180117812500226
L16.299212199999815,11.728346170000238
L16.653542899999813,11.25885799250025
L17.007873599999815,10.771653280000262
L17.362204299999814,10.26673203250027
L17.716534999999812,9.744094250000284
L18.07086569999981,9.203739932500293
L18.42519639999981,8.645669080000307
L18.779527099999807,8.069881692500317
L19.133857799999806,7.476377770000329
L19.488188499999804,6.86515731250034
L19.842519199999803,6.2362203200003545
L20.1968498999998,5.589566792500367
L20.5511805999998,4.92519673000038
L20.905511299999798,4.243110132500389
L21.2598419999998,3.5433070000004028
L21.614172699999802,2.8257873325004006
L21.968503399999797,2.0905511300004274
L22.32283409999979,1.3375983925004578
L22.677164799999794,0.5669291200004537
L23.0314954999998,-0.2214566874995468
L23.38582619999979,-1.0275590299995185
L23.740156899999782,-1.8513779074994932
L24.094487599999788,-2.6929133199994895
L24.448818299999793,-3.5521652674994946
L24.803148999999785,-4.429133749999465
L25.15747969999978,-5.323818767499438
L25.511810399999785,-6.236220319999439
L25.866141099999787,-7.1663384074994365
L26.220471799999782,-8.114173029999412
L26.574802499999773,-9.079724187499377
L26.92913319999978,-10.062991879999382
L27.283463899999784,-11.063976107499386
L27.637794599999776,-12.082676869999352
L27.992125299999767,-13.119094167499316
L28.346455999999773,-14.17322799999932
L28.700786699999778,-15.245078367499326
L29.05511739999977,-16.334645269999292
L29.409448099999764,-17.441928707499255
L29.76377879999977,-18.566928679999265
L30.118109499999772,-19.70964518749926
L30.472440199999767,-20.870078229999223
L30.826770899999758,-22.048227807499195
L31.181101599999764,-23.24409391999919
L31.53543229999977,-24.457676567499206
L31.88976299999976,-25.68897574999917
L32.24409369999975,-26.937991467499128
L32.59842439999976,-28.204723719999134
L32.95275509999976,-29.489172507499138
L33.307085799999754,-30.791337829999097
L33.661416499999746,-32.11121968749906
L34.01574719999975,-33.44881807999906
L34.37007789999976,-34.804133007499075
" style="stroke:#000;stroke-width:1pt;fill:#fac;" />
<path d="M-35.43307,-35.43307
L35.43307,-35.43307
" style="stroke:#000;stroke-width:1pt;fill:#fac;" />
<path d="M-35.43307,-35.43307
L-35.43307,35.43307
" style="stroke:#000;stroke-width:1pt;fill:#fac;" />
<path d="M-35.43307,-31.889763
L35.43307,-31.889763
" style="stroke:#000;stroke-width:1pt;fill:#fac;" />
<path d="M-31.889763,-35.43307
L-31.889763,35.43307
" style="stroke:#000;stroke-width:1pt;fill:#fac;" />
<path d="M-35.43307,-28.346456
L35.43307,-28.346456
" style="stroke:#000;stroke-width:1pt;fill:#fac;" />
<path d="M-28.346456,-35.43307
L-28.346456,35.43307
" style="stroke:#000;stroke-width:1pt;fill:#fac;" />
<path d="M-35.43307,-24.803149
L35.43307,-24.803149
" style="stroke:#000;stroke-width:1pt;fill:#fac;" />
<path d="M-24.803149,-35.43307
L-24.803149,35.43307
" style="stroke:#000;stroke-width:1pt;fill:#fac;" />
<path d="M-35.43307,-21.259842
L35.43307,-21.259842
" style="stroke:#000;stroke-width:1pt;fill:#fac;" />
<path d="M-21.259842,-35.43307
L-21.259842,35.43307
" style="stroke:#000;stroke-width:1pt;fill:#fac;" />
<path d="M-35.43307,-17.716535
L35.43307,-17.716535
" style="stroke:#000;stroke-width:1pt;fill:#fac;" />
<path d="M-17.716535,-35.43307
L-17.716535,35.43307
" style="stroke:#000;stroke-width:1pt;fill:#fac;" />
<path d="M-35.43307,-14.173228
L35.43307,-14.173228
" style="stroke:#000;stroke-width:1pt;fill:#fac;" />
<path d="M-14.173228,-35.43307
L-14.173228,35.43307
" style="stroke:#000;stroke-width:1pt;fill:#fac;" />
<path d="M-35.43307,-10.629921
L35.43307,-10.629921
" style="stroke:#000;stroke-width:1pt;fill:#fac;" />
<path d="M-10.629921,-35.43307
L-10.629921,35.43307
" style="stroke:#000;stroke-width:1pt;fill:#fac;" />
<path d="M-35.43307,-7.086614
L35.43307,-7.086614
" style="stroke:#000;stroke-width:1pt;fill:#fac;" />
<path d="M-7.086614,-35.43307
L-7.086614,35.43307
" style="stroke:#000;stroke-width:1pt;fill:#fac;" />
<path d="M-35.43307,-3.543307
L35.43307,-3.543307
" style="stroke:#000;stroke-width:1pt;fill:#fac;" />
<path d="M-3.543307,-35.43307
L-3.543307,35.43307
" style="stroke:#000;stroke-width:1pt;fill:#fac;" />
<path d="M-35.43307,0.0
L35.43307,0.0
" style="stroke:#000;stroke-width:1pt;fill:#fac;" />
<path d="M0.0,-35.43307
L0.0,35.43307
" style="stroke:#000;stroke-width:1pt;fill:#fac;" />
<path d="M-35.43307,3.543307
L35.43307,3.543307
" style="stroke:#000;stroke-width:1pt;fill:#fac;" />
<path d="M3.543307,-35.43307
L3.543307,35.43307
" style="stroke:#000;stroke-width:1pt;fill:#fac;" />
<path d="M-35.43307,7.086614
L35.43307,7.086614
" style="stroke:#000;stroke-width:1pt;fill:#fac;" />
<path d="M7.086614,-35.43307
L7.086614,35.43307
" style="stroke:#000;stroke-width:1pt;fill:#fac;" />
<path d="M-35.43307,10.629921
L35.43307,10.629921
" style="stroke:#000;stroke-width:1pt;fill:#fac;" />
<path d="M10.629921,-35.43307
L10.629921,35.43307
" style="stroke:#000;stroke-width:1pt;fill:#fac;" />
<path d="M-35.43307,14.173228
L35.43307,14.173228
" style="stroke:#000;stroke-width:1pt;fill:#fac;" />
<path d="M14.173228,-35.43307
L14.173228,35.43307
" style="stroke:#000;stroke-width:1pt;fill:#fac;" />
<path d="M-35.43307,17.716535
L35.43307,17.716535
" style="stroke:#000;stroke-width:1pt;fill:#fac;" />
<path d="M17.716535,-35.43307
L17.716535,35.43307
" style="stroke:#000;stroke-width:1pt;fill:#fac;" />
<path d="M-35.43307,21.259842
L35.43307,21.259842
" style="stroke:#000;stroke-width:1pt;fill:#fac;" />
<path d="M21.259842,-35.43307
L21.259842,35.43307
" style="stroke:#000;stroke-width:1pt;fill:#fac;" />
<path d="M-35.43307,24.803149
L35.43307,24.803149
" style="stroke:#000;stroke-width:1pt;fill:#fac;" />
<path d="M24.803149,-35.43307
L24.803149,35.43307
" style="stroke:#000;stroke-width:1pt;fill:#fac;" />
<path d="M-35.43307,28.346456
L35.43307,28.346456
" style="stroke:#000;stroke-width:1pt;fill:#fac;" />
<path d="M28.346456,-35.43307
L28.346456,35.43307
" style="stroke:#000;stroke-width:1pt;fill:#fac;" />
<path d="M-35.43307,31.889763
L35.43307,31.889763
" style="stroke:#000;stroke-width:1pt;fill:#fac;" />
<path d="M31.889763,-35.43307
L31.889763,35.43307
" style="stroke:#000;stroke-width:1pt;fill:#fac;" />
<path d="M-35.43307,35.43307
L35.43307,35.43307
" style="stroke:#000;stroke-width:1pt;fill:#fac;" />
<path d="M35.43307,-35.43307
L35.43307,35.43307
" style="stroke:#000;stroke-width:1pt;fill:#fac;" />

</svg>