<svg xmlns="http://www.w3.org/2000/svg" xmlns:xlink="http://www.w3.org/1999/xlink" width="100mm" height="100mm" viewbox="0 0 100 100" >
<path d="M35.0787393,0.0
L34.51,1.1
L32.42,2.06
L28.59,2.69
L22.61,2.87
L15.63,2.48
L8.01,1.52
L1.31,0.28
L-5.88,-1.52
L-13.75,-4.0
L-19.63,-6.38
L-24.98,-9.0
L-29.23,-11.59
L-31.82,-13.78
L-32.31,-15.2
L-31.25,-15.91
L-29.23,-16.09
L-24.7,-14.6
L-20.34,-12.9
L-15.27,-10.38
L-8.72,-6.34
L-2.8,-2.16
L4.07,3.37
L8.86,7.8
L13.54,12.72
L17.57,17.57
L20.44,21.76
L22.36,25.37
L22.82,27.57
L21.83,28.13
L19.38,26.68
L17.54,25.83
L13.5,21.3
L9.99,16.87
L6.27,11.44
L2.83,5.53
L-0.64,-1.35
L-3.61,-8.36
L-6.48,-16.33
L-7.8,-21.69
L-8.86,-27.28
L-9.25,-31.78
L-8.5,-33.17
L-7.69,-34.48
L-6.41,-33.63
L-4.89,-30.79
L-3.37,-26.65
L-2.02,-21.22
L-0.99,-15.77
L-0.25,-8.11
L0.0,-0.21
L-0.25,7.33
L-0.99,15.91
L-2.09,21.97
L-3.4,26.89
L-5.0,31.46
L-6.56,34.33
L-7.58,33.94
L-8.5,33.06
L-9.25,31.78
L-8.65,26.65
L-8.11,22.57
L-6.17,15.56
L-4.15,9.57
L-0.92,1.95
L2.66,-5.17
L6.2,-11.27
L10.49,-17.72
L13.46,-21.19
L17.36,-25.55
L20.06,-27.6
L21.44,-27.6
L22.93,-27.71
L21.51,-24.41
L20.48,-21.79
L18.07,-18.07
L14.07,-13.22
L8.43,-7.44
L3.54,-2.91
L-2.23,1.74
L-9.18,6.66
L-14.49,9.85
L-20.83,13.22
L-25.05,14.81
L-29.09,15.98
L-31.07,15.84
L-32.56,15.31
L-31.0,13.43
L-29.62,11.73
L-24.98,9.0
L-19.38,6.31
L-12.97,3.76
L-6.45,1.67
L1.17,-0.25
L8.15,-1.56
L15.7,-2.48
L21.83,-2.76
L28.59,-2.69
L32.53,-2.06
L35.22,-1.1
L35.19,0.0
" style="stroke:#000;stroke-width:1pt;fill:#fac;" />

</svg>