<?xml version="1.0" encoding="UTF-8" standalone="no"?>
<svg
   xmlns:dc="http://purl.org/dc/elements/1.1/"
   xmlns:cc="http://creativecommons.org/ns#"
   xmlns:rdf="http://www.w3.org/1999/02/22-rdf-syntax-ns#"
   xmlns:svg="http://www.w3.org/2000/svg"
   xmlns="http://www.w3.org/2000/svg"
   width="50"
   height="50"
   viewbox="0 0 100 100"
   version="1.1"
   id="svg4">
  <metadata
     id="metadata10">
    <rdf:RDF>
      <cc:Work
         rdf:about="">
        <dc:format>image/svg+xml</dc:format>
        <dc:type
           rdf:resource="http://purl.org/dc/dcmitype/StillImage" />
        <dc:title></dc:title>
      </cc:Work>
    </rdf:RDF>
  </metadata>
  <defs
     id="defs8" />
  <path
     d="m 48.332229,24.592493 c 0,0 0.07046,0.510478 -0.07989,0.79887 -0.150349,0.288392 -0.416809,0.495953 -0.871495,0.748033 -0.454688,0.25208 -1.228088,0.416604 -1.880977,0.588259 -0.652889,0.171656 -1.373715,0.30283 -2.033488,0.435748 -0.659772,0.132903 -0.947891,0.290948 -1.924551,0.363122 -0.976661,0.07219 -2.759748,-0.09528 -3.914464,-0.152511 -1.154717,-0.05723 -1.861858,-0.05563 -3.013919,-0.181562 -1.152061,-0.125931 -2.580954,-0.364764 -3.885415,-0.617308 -1.304462,-0.252545 -2.584492,-0.549594 -3.936251,-0.900545 -1.35176,-0.350951 -2.830774,-0.773132 -4.16865,-1.21283 C 21.285252,24.022071 19.827009,23.482397 18.766764,23.04559 17.706519,22.608782 17.334021,22.405782 16.246691,21.890859 15.159361,21.375951 13.448063,20.590211 12.25234,19.937258 11.05662,19.284305 9.9066438,18.588722 9.0641248,18.005445 8.2216057,17.422168 7.8521863,17.070084 7.1613611,16.509379 6.4705359,15.948673 5.6064066,15.25874 4.9245244,14.635665 4.2426436,14.012589 3.543715,13.360392 3.0653355,12.783738 2.586956,12.207085 2.235148,11.704334 2.0122792,11.236835 1.7894104,10.769336 1.6223652,10.393301 1.6564188,10.053054 1.6904652,9.7128083 1.8525981,9.5390177 2.041329,9.3340712 2.23006,9.1291247 2.3720091,8.9562492 2.7603123,8.869274 3.148617,8.78227 3.6846487,8.924178 4.2781658,9.0726228 c 0.593517,0.1485027 1.3306316,0.4652184 2.004438,0.748033 0.6738064,0.2828142 1.3945573,0.6422482 2.0334879,0.9513822 0.6389306,0.309133 1.1262575,0.503157 1.8010893,0.900544 0.674832,0.397387 1.338264,0.832481 2.215049,1.517854 0.876784,0.685372 2.054766,1.782831 2.98487,2.650797 0.930103,0.867965 1.704834,1.602998 2.59996,2.549122 0.895123,0.946124 1.894853,2.093853 2.752471,3.137381 0.857617,1.043528 1.632796,2.064397 2.39661,3.115594 0.763813,1.051197 1.472763,2.068653 2.186,3.188219 0.713237,1.119565 1.463919,2.391149 2.084325,3.529554 0.620406,1.138404 1.151929,2.207845 1.648578,3.289893 0.496649,1.082048 0.929832,2.130833 1.336292,3.195481 0.406459,1.064647 0.863539,2.277956 1.103893,3.188218 0.240354,0.910262 0.279971,1.439201 0.41396,2.236837 0.133993,0.797635 0.396214,1.888079 0.38491,2.549122 -0.01133,0.661043 -0.168128,0.88846 -0.254186,1.365342 -0.08606,0.476882 -0.102575,1.108004 -0.261448,1.496066 -0.158872,0.388062 -0.202368,0.743792 -0.566472,0.820658 -0.364104,0.07684 -0.720412,-0.558687 -1.053056,-0.646359 -0.332645,-0.08773 -0.398366,0.241651 -0.82792,0.02905 -0.429555,-0.212601 -0.786892,-1.007448 -1.18378,-1.670365 -0.396889,-0.662917 -0.798229,-1.617393 -1.154731,-2.316724 -0.356504,-0.699331 -0.651867,-1.102049 -0.980432,-1.880976 -0.328566,-0.778928 -0.606268,-1.634343 -0.922332,-2.803309 -0.316065,-1.168965 -0.662557,-3.026541 -0.900544,-4.219487 -0.237988,-1.192946 -0.364079,-1.600863 -0.544685,-2.934032 -0.180605,-1.33317 -0.354776,-3.69922 -0.435747,-5.069195 -0.08098,-1.369976 -0.101704,-1.94692 -0.101674,-3.144644 2.4e-5,-1.197724 0.04418,-2.579886 0.130724,-4.037926 0.08654,-1.45804 0.229644,-3.302907 0.406697,-4.706072 0.177053,-1.403165 0.388921,-2.703987 0.617309,-3.711115 0.228388,-1.007129 0.392346,-1.361653 0.675409,-2.338512 0.283063,-0.9768436 0.668702,-2.6357049 1.024006,-3.5222911 0.355304,-0.8865862 0.603641,-1.1524793 0.951382,-1.8301391 0.347741,-0.6776599 0.736304,-1.542081 1.132943,-2.2368367 0.396639,-0.6947557 0.749785,-1.7617849 1.234618,-1.93181354 0.484831,-0.17001412 0.461894,0.24236271 0.748033,0.25418598 0.286139,0.0116199 0.611226,-0.3052701 0.900545,-0.22513616 0.289317,0.0801775 0.4281,0.36865679 0.617308,0.61730882 0.189208,0.248652 0.356947,0.5190914 0.493847,0.8714949 0.136898,0.3524034 0.25935,0.5905103 0.283236,1.2346176 0.02388,0.6441218 -0.258147,1.7733031 -0.392172,2.5709097 -0.134022,0.7976066 -0.157376,1.2805454 -0.406698,2.2150493 -0.249323,0.9345039 -0.75399,2.2411213 -1.18378,3.3479923 -0.429791,1.106871 -0.90475,2.222065 -1.394392,3.289893 -0.489644,1.067828 -0.938634,2.005455 -1.539641,3.115594 -0.601008,1.110139 -1.424759,2.484138 -2.084325,3.529554 -0.659568,1.045416 -1.026637,1.60602 -1.851927,2.752471 -0.825289,1.146452 -2.24987,3.0205 -3.144643,4.088764 -0.894774,1.068263 -1.297512,1.459608 -2.15695,2.36756 -0.859439,0.907953 -2.143505,2.28108 -3.013919,3.064757 -0.870415,0.783677 -1.312739,1.055802 -2.135163,1.699415 -0.822425,0.643614 -1.908115,1.530069 -2.803308,2.15695 -0.8951938,0.62688 -1.829965,1.275258 -2.5491225,1.619528 C 6.877951,39.447151 6.467323,39.510407 5.9267434,39.669353 5.3861639,39.828299 4.8828989,39.958719 4.3580528,40.061526 3.8332081,40.164362 3.1351771,40.472566 2.7820997,40.286662 2.4290223,40.100758 2.5636522,39.794747 2.4262393,39.567679 2.2888336,39.340611 1.9849201,39.346392 1.961442,38.928583 1.9379552,38.510773 2.6927627,37.8531 2.8111495,37.432517 c 0.1183926,-0.420584 -0.1565699,-0.427745 0.02905,-0.900545 0.1856211,-0.472801 0.8178485,-1.033273 1.4089166,-1.619528 0.5910681,-0.586255 1.2845558,-1.179481 2.1642122,-1.851926 0.8796563,-0.672446 2.1026395,-1.474933 3.1373813,-2.135163 1.0347416,-0.66023 2.1446396,-1.304482 3.0647566,-1.830139 0.920117,-0.525656 1.392107,-0.81996 2.447448,-1.336292 1.055341,-0.516332 2.671097,-1.20413 3.907202,-1.699415 1.236103,-0.495285 2.25621,-0.875184 3.500504,-1.285455 1.244293,-0.41027 2.67293,-0.824114 3.965301,-1.161993 1.292372,-0.337878 2.445989,-0.607751 3.78374,-0.871495 1.337751,-0.263728 2.952866,-0.539121 4.241275,-0.697195 1.288409,-0.158075 2.481929,-0.258718 3.478717,-0.283236 0.996787,-0.02455 1.578225,0.03747 2.491023,0.07989 0.912797,0.04241 2.006272,0.08657 2.984869,0.181561 0.978597,0.09499 2.312051,0.09093 2.883196,0.38491 0.571144,0.293985 0.341201,0.4476 0.646358,0.689934 0.305156,0.242333 0.986901,0.400408 1.205568,0.697196 0.218667,0.296787 0.181562,0.79887 0.181562,0.79887"
     style="fill:none;stroke:#000000;stroke-width:0.7262457;stroke-miterlimit:4;stroke-dasharray:none"
     id="path2" />
</svg>
