<svg xmlns="http://www.w3.org/2000/svg" xmlns:xlink="http://www.w3.org/1999/xlink" width="100mm" height="100mm" viewbox="0 0 100 100" >
<path d="M35.11417237,0.0
L35.43,1.1
L34.26,2.16
L34.44,3.26
L32.99,4.18
L31.07,4.93
L30.01,5.74
L27.92,6.24
L25.12,6.45
L22.85,6.66
L19.03,6.17
L17.72,6.38
L13.29,5.24
L11.34,4.93
L8.4,3.97
L4.18,2.13
L1.81,0.99
L-1.28,-0.74
L-3.51,-2.23
L-7.09,-4.82
L-9.28,-6.73
L-11.52,-8.93
L-12.72,-10.52
L-14.92,-13.15
L-15.87,-14.92
L-18.11,-18.11
L-18.92,-20.16
L-19.1,-21.65
L-19.98,-24.13
L-19.42,-25.05
L-19.7,-27.14
L-19.49,-28.7
L-19.2,-30.26
L-18.14,-30.69
L-17.26,-31.39
L-15.98,-31.32
L-14.39,-30.54
L-13.43,-31.04
L-11.66,-29.44
L-10.59,-29.44
L-8.65,-26.65
L-7.33,-25.23
L-5.99,-23.31
L-4.89,-21.83
L-3.51,-18.35
L-2.62,-16.44
L-1.56,-12.4
L-0.96,-10.13
L-0.46,-7.19
L-0.11,-2.83
L-0.0,0.18
L-0.11,2.83
L-0.35,5.88
L-0.96,9.92
L-1.67,13.04
L-2.55,16.12
L-3.61,18.89
L-4.89,21.97
L-6.17,23.99
L-7.19,24.73
L-9.14,28.1
L-10.38,28.84
L-11.98,30.3
L-13.29,30.69
L-14.88,31.68
L-15.56,30.54
L-17.33,31.5
L-17.61,29.8
L-18.71,29.48
L-19.38,28.52
L-19.63,27.04
L-19.63,25.33
L-19.28,23.28
L-19.28,21.86
L-18.46,19.67
L-18.0,18.0
L-16.69,15.7
L-14.85,13.07
L-12.51,10.35
L-11.76,9.14
L-9.57,6.94
L-5.99,4.07
L-4.22,2.69
L-0.81,0.5
L2.52,-1.38
L5.1,-2.62
L7.9,-3.72
L10.42,-4.5
L13.93,-5.53
L17.75,-6.38
L20.16,-6.56
L22.89,-6.66
L24.41,-6.27
L26.96,-6.02
L29.13,-5.56
L31.11,-4.93
L33.2,-4.18
L33.91,-3.22
L35.26,-2.23
L35.04,-1.1
L35.5,0.0
" style="stroke:#000;stroke-width:1pt;fill:#fac;" />

</svg>