<svg xmlns="http://www.w3.org/2000/svg" xmlns:xlink="http://www.w3.org/1999/xlink" width="100mm" height="100mm" viewbox="0 0 100 100" >
<path d="M35.43307,0.0
L33.7,1.06
L32.74,2.06
L27.57,2.62
L22.5,2.83
L16.62,2.62
L8.01,1.52
L0.67,0.14
L-6.84,-1.74
L-14.0,-4.07
L-19.24,-6.27
L-25.05,-9.04
L-28.31,-11.2
L-31.93,-13.82
L-32.0,-15.06
L-31.54,-16.09
L-29.27,-16.09
L-25.51,-15.09
L-21.01,-13.32
L-14.92,-10.13
L-8.93,-6.48
L-2.2,-1.7
L4.0,3.3
L9.57,8.43
L13.46,12.65
L17.11,17.11
L20.16,21.47
L22.61,25.65
L21.97,26.54
L21.26,27.39
L19.74,27.18
L17.43,25.69
L13.89,21.86
L10.03,16.97
L6.7,12.15
L2.37,4.68
L-0.96,-1.98
L-3.69,-8.47
L-6.38,-16.09
L-8.01,-22.29
L-9.11,-28.06
L-9.28,-31.89
L-8.65,-33.66
L-7.76,-34.69
L-6.38,-33.41
L-4.85,-30.72
L-3.44,-27.32
L-2.09,-22.0
L-0.99,-15.84
L-0.25,-8.43
L0.0,-0.18
L-0.21,6.87
L-0.89,14.35
L-2.09,22.15
L-3.44,27.18
L-5.03,31.78
L-6.41,33.66
L-7.8,34.83
L-8.5,33.17
L-8.86,30.47
L-8.89,27.32
L-8.15,22.64
L-6.56,16.55
L-4.15,9.53
L-0.85,1.84
L2.59,-5.1
L5.95,-10.84
L10.24,-17.33
L14.28,-22.5
L16.97,-24.98
L19.63,-27.04
L21.54,-27.78
L22.61,-27.35
L22.43,-25.44
L20.34,-21.65
L18.25,-18.25
L13.85,-13.0
L9.32,-8.22
L3.61,-3.01
L-2.76,2.16
L-8.65,6.27
L-14.92,10.13
L-19.84,12.58
L-25.48,15.06
L-29.16,16.05
L-30.61,15.59
L-32.17,15.13
L-31.64,13.71
L-29.3,11.59
L-25.65,9.25
L-20.3,6.59
L-12.97,3.76
L-6.84,1.77
L1.17,-0.25
L9.0,-1.7
L15.45,-2.44
L21.86,-2.76
L28.52,-2.69
L31.15,-1.95
L33.77,-1.06
L35.29,0.0
" style="stroke:#000;stroke-width:1pt;fill:#fac;" />

</svg>