<?xml version="1.0" encoding="UTF-8" standalone="no"?>
<svg
   xmlns:dc="http://purl.org/dc/elements/1.1/"
   xmlns:cc="http://creativecommons.org/ns#"
   xmlns:rdf="http://www.w3.org/1999/02/22-rdf-syntax-ns#"
   xmlns:svg="http://www.w3.org/2000/svg"
   xmlns="http://www.w3.org/2000/svg"
   xmlns:sodipodi="http://sodipodi.sourceforge.net/DTD/sodipodi-0.dtd"
   xmlns:inkscape="http://www.inkscape.org/namespaces/inkscape"
   id="svg4"
   version="1.1"
   viewbox="0 0 100 100"
   height="100mm"
   width="100mm"
   sodipodi:docname="outRad-2.svg"
   inkscape:version="0.92.5 (2060ec1f9f, 2020-04-08)">
  <sodipodi:namedview
     pagecolor="#ffffff"
     bordercolor="#666666"
     borderopacity="1"
     objecttolerance="10"
     gridtolerance="10"
     guidetolerance="10"
     inkscape:pageopacity="0"
     inkscape:pageshadow="2"
     inkscape:window-width="1318"
     inkscape:window-height="704"
     id="namedview863"
     showgrid="false"
     inkscape:zoom="1.3917083"
     inkscape:cx="188.97638"
     inkscape:cy="246.45969"
     inkscape:window-x="0"
     inkscape:window-y="27"
     inkscape:window-maximized="1"
     inkscape:current-layer="svg4" />
  <metadata
     id="metadata10">
    <rdf:RDF>
      <cc:Work
         rdf:about="">
        <dc:format>image/svg+xml</dc:format>
        <dc:type
           rdf:resource="http://purl.org/dc/dcmitype/StillImage" />
        <dc:title></dc:title>
      </cc:Work>
    </rdf:RDF>
  </metadata>
  <defs
     id="defs8" />
  <path
     id="path2"
     style="fill:none;stroke:#000000;stroke-width:0.5;stroke-miterlimit:4;stroke-dasharray:none"
     d="m 34.342657,18.244092 c 0,0 0.04851,0.351453 -0.055,0.55 -0.103511,0.198547 -0.286961,0.341454 -0.6,0.515 -0.31304,0.173546 -0.845504,0.286819 -1.295,0.405 -0.449496,0.11818 -0.945765,0.208494 -1.4,0.3 -0.454235,0.09151 -0.652597,0.200305 -1.325,0.25 -0.672404,0.04969 -1.90001,-0.06557 -2.695,-0.105 -0.794991,-0.03943 -1.281838,-0.03831 -2.075,-0.125 -0.793162,-0.08669 -1.776915,-0.251129 -2.675,-0.425 -0.898086,-0.173872 -1.779351,-0.378379 -2.71,-0.62 -0.930649,-0.241621 -1.948909,-0.532279 -2.87,-0.835 -0.921091,-0.302721 -1.925051,-0.674266 -2.655,-0.975 -0.729949,-0.300734 -0.986404,-0.440495 -1.735,-0.795 -0.748597,-0.354505 -1.926778,-0.895461 -2.7500002,-1.345 -0.823222,-0.449539 -1.614949,-0.928435 -2.195,-1.33 -0.580051,-0.401566 -0.834386,-0.643974 -1.31,-1.03 -0.475614,-0.386027 -1.070543,-0.861031 -1.54,-1.29 -0.469456,-0.42897 -0.950649,-0.877994 -1.28,-1.275 -0.329351,-0.3970073 -0.571561,-0.7431403 -0.725,-1.0650003 -0.153439,-0.32186 -0.268445,-0.580754 -0.245,-0.815 0.02344,-0.234247 0.135064,-0.353897 0.265,-0.495 0.129936,-0.141104 0.227664,-0.260119 0.495,-0.32 0.267337,-0.05988 0.63638,0.03776 1.045,0.14 0.40862,0.102242 0.916103,0.320291 1.38,0.515 0.463897,0.194708 0.960114,0.442171 1.4,0.655 0.439886,0.212829 0.775397,0.346405 1.24,0.62 0.464603,0.273594 0.921358,0.573143 1.525,1.0450003 0.6036412,0.471856 1.4146492,1.227425 2.0550002,1.825 0.64035,0.597574 1.173731,1.103618 1.79,1.755 0.616268,0.651382 1.304554,1.441557 1.895,2.16 0.590446,0.718443 1.124135,1.421276 1.65,2.145 0.525864,0.723724 1.013956,1.424213 1.505,2.195 0.491044,0.770787 1.007868,1.646242 1.435,2.43 0.427132,0.783758 0.793071,1.520043 1.135,2.265 0.341929,0.744957 0.640164,1.467024 0.92,2.2 0.279836,0.732976 0.594523,1.568312 0.76,2.195 0.165477,0.626687 0.192752,0.990853 0.285,1.54 0.09225,0.549146 0.272782,1.299892 0.265,1.755 -0.0078,0.455107 -0.115752,0.611676 -0.175,0.94 -0.05925,0.328323 -0.07062,0.762833 -0.18,1.03 -0.109379,0.267167 -0.139325,0.512077 -0.39,0.565 -0.250676,0.05292 -0.495984,-0.384637 -0.725,-0.445 -0.229017,-0.06036 -0.274264,0.166372 -0.57,0.02 -0.295737,-0.146372 -0.541753,-0.693602 -0.815,-1.15 -0.273247,-0.456399 -0.549558,-1.113534 -0.795,-1.595 -0.245443,-0.481466 -0.448792,-0.758735 -0.675,-1.295 -0.226209,-0.536266 -0.417399,-1.125198 -0.635,-1.93 -0.217602,-0.804802 -0.456152,-2.083695 -0.62,-2.905 -0.163848,-0.821306 -0.250658,-1.102154 -0.375,-2.02 -0.124342,-0.917847 -0.244254,-2.546812 -0.3,-3.49 -0.05575,-0.943188 -0.07002,-1.340402 -0.07,-2.165 1.7e-5,-0.824598 0.03042,-1.776178 0.09,-2.78 0.05958,-1.003822 0.158104,-2.273963 0.28,-3.24 0.121896,-0.966037 0.267761,-1.86162 0.425,-2.5550003 0.157239,-0.69338 0.270119,-0.937465 0.465,-1.61 0.194881,-0.672535 0.460383,-1.814612 0.705,-2.425 0.244617,-0.610388 0.41559,-0.79345 0.655,-1.26 0.23941,-0.46655 0.506925,-1.06168 0.78,-1.54 0.273075,-0.478319 0.516206,-1.212945 0.85,-1.33 0.333793,-0.117054 0.318001,0.166861 0.515,0.175 0.196999,0.0081 0.420812,-0.210171 0.62,-0.155 0.199187,0.05517 0.294735,0.253814 0.425,0.425 0.130264,0.171187 0.245748,0.357378 0.34,0.6 0.09425,0.242623 0.178555,0.406546 0.195,0.85 0.01644,0.443455 -0.177727,1.220871 -0.27,1.77 -0.09227,0.549129 -0.108349,0.881615 -0.28,1.525 -0.171652,0.643384 -0.519101,1.54295 -0.815,2.305 -0.295899,0.762049 -0.622895,1.5298263 -0.96,2.2650003 -0.337106,0.735174 -0.646223,1.380702 -1.06,2.145 -0.413777,0.764298 -0.980907,1.710263 -1.435,2.43 -0.454094,0.719737 -0.706811,1.105696 -1.275,1.895 -0.568189,0.789304 -1.548973,2.079526 -2.165,2.815 -0.616027,0.735474 -0.893301,1.004904 -1.485,1.63 -0.5917,0.625096 -1.475744,1.570464 -2.075,2.11 -0.599256,0.539535 -0.903784,0.726885 -1.4700002,1.17 -0.566217,0.443114 -1.313684,1.053413 -1.93,1.485 -0.616316,0.431586 -1.25988,0.877978 -1.755,1.115 -0.49512,0.237021 -0.777826,0.28057 -1.15,0.39 -0.372174,0.109429 -0.718658,0.199218 -1.08,0.27 -0.361341,0.07078 -0.841916,0.282992 -1.085,0.155 -0.243084,-0.127993 -0.150395,-0.338668 -0.245,-0.495 -0.0946,-0.156332 -0.303836,-0.152355 -0.32,-0.44 -0.01617,-0.287646 0.503494,-0.740443 0.585,-1.03 0.08151,-0.289557 -0.107794,-0.294487 0.02,-0.62 0.127795,-0.325513 0.563066,-0.711377 0.97,-1.115 0.406934,-0.403623 0.884381,-0.812043 1.49,-1.275 0.605619,-0.462957 1.447609,-1.015446 2.16,-1.47 0.712391,-0.454554 1.476525,-0.8981 2.11,-1.26 0.6334752,-0.3619 0.9584272,-0.564522 1.6850002,-0.92 0.726573,-0.355478 1.838976,-0.829007 2.69,-1.17 0.851023,-0.340994 1.553338,-0.602541 2.41,-0.885 0.856661,-0.282459 1.840238,-0.567378 2.73,-0.8 0.889762,-0.232622 1.683995,-0.418425 2.605,-0.6 0.921004,-0.181575 2.032966,-0.371167 2.92,-0.48 0.887034,-0.108833 1.708739,-0.178121 2.395,-0.195 0.68626,-0.01688 1.086564,0.02582 1.715,0.055 0.628436,0.02918 1.381263,0.05962 2.055,0.125 0.673737,0.06538 1.591783,0.0626 1.985,0.265 0.393217,0.202397 0.234908,0.308158 0.445,0.475 0.210091,0.166842 0.679454,0.275666 0.83,0.48 0.150546,0.204334 0.125,0.55 0.125,0.55"
     inkscape:connector-curvature="0" />
</svg>
