<svg xmlns="http://www.w3.org/2000/svg" xmlns:xlink="http://www.w3.org/1999/xlink" width="100mm" height="100mm" viewbox="0 0 100 100" >
<path d="M34.68897552999999,0.0
L35.33,1.1
L32.99,2.09
L31.5,2.98
L28.49,3.61
L24.09,3.83
L20.62,3.93
L15.98,3.58
L9.74,2.52
L5.42,1.56
L0.21,0.07
L-6.02,-2.16
L-10.03,-3.97
L-15.41,-6.66
L-18.64,-8.75
L-22.15,-11.27
L-25.05,-13.78
L-26.57,-15.73
L-28.74,-18.25
L-28.88,-19.63
L-29.3,-21.3
L-28.17,-21.86
L-26.11,-21.61
L-24.09,-21.22
L-20.52,-19.28
L-18.04,-18.04
L-14.49,-15.45
L-10.28,-11.66
L-7.02,-8.47
L-3.01,-3.9
L-0.18,-0.25
L3.26,4.78
L5.81,9.18
L8.19,13.82
L9.67,17.61
L11.48,22.54
L12.12,25.76
L12.58,29.09
L12.69,32.03
L11.87,32.99
L10.77,33.17
L9.53,32.81
L8.54,33.2
L6.84,30.58
L5.46,28.63
L3.83,24.27
L2.55,20.3
L1.52,16.12
L0.74,11.76
L0.18,6.09
L0.0,-0.74
L0.18,-5.63
L0.64,-10.38
L1.45,-15.45
L2.52,-19.98
L3.83,-24.24
L5.49,-28.81
L6.8,-30.37
L8.57,-33.34
L9.92,-34.09
L10.7,-32.92
L12.01,-33.38
L12.61,-31.82
L12.26,-28.35
L12.12,-25.76
L11.34,-22.25
L9.85,-17.89
L8.54,-14.46
L5.81,-9.18
L2.94,-4.32
L0.04,-0.04
L-3.86,4.96
L-7.19,8.68
L-10.31,11.69
L-13.93,14.85
L-18.0,18.0
L-21.05,19.77
L-23.49,20.69
L-25.72,21.3
L-28.2,21.86
L-28.56,20.76
L-29.37,19.95
L-28.84,18.28
L-26.5,15.7
L-24.91,13.68
L-22.32,11.37
L-18.5,8.72
L-14.53,6.31
L-10.81,4.29
L-5.1,1.84
L-0.39,0.11
L4.68,-1.35
L9.89,-2.55
L14.99,-3.37
L20.69,-3.93
L25.19,-4.0
L27.85,-3.51
L31.71,-3.01
L33.87,-2.13
L34.83,-1.1
L35.54,0.0
" style="stroke:#000;stroke-width:1pt;fill:#fac;" />

</svg>