<svg xmlns="http://www.w3.org/2000/svg" xmlns:xlink="http://www.w3.org/1999/xlink" width="100mm" height="100mm" viewbox="0 0 100 100" >
<path d="M35.11417237,0.0
L34.72,1.1
L33.52,2.13
L30.93,2.94
L28.13,3.54
L25.48,4.04
L20.09,3.83
L15.94,3.58
L10.59,2.73
L5.17,1.49
L-0.57,-0.18
L-5.88,-2.13
L-9.35,-3.72
L-14.85,-6.41
L-19.24,-9.07
L-21.86,-11.13
L-24.94,-13.71
L-27.5,-16.26
L-28.95,-18.39
L-29.44,-20.02
L-28.91,-21.01
L-27.92,-21.65
L-25.83,-21.37
L-23.07,-20.34
L-20.27,-19.03
L-17.79,-17.79
L-14.74,-15.7
L-10.63,-12.05
L-7.05,-8.54
L-3.26,-4.22
L0.04,0.07
L3.05,4.46
L5.92,9.32
L8.19,13.85
L10.03,18.25
L11.55,22.64
L12.12,25.72
L12.65,29.23
L12.3,31.11
L11.94,33.17
L11.16,34.3
L9.71,33.41
L8.57,33.45
L6.94,31.15
L5.35,27.96
L4.0,25.37
L2.73,21.51
L1.49,15.7
L0.74,11.66
L0.14,4.68
L-0.0,0.35
L0.18,-5.21
L0.74,-11.69
L1.59,-16.8
L2.52,-20.02
L3.93,-24.87
L5.24,-27.39
L6.8,-30.47
L8.5,-33.13
L9.53,-32.78
L10.77,-33.09
L11.62,-32.24
L12.3,-31.04
L12.69,-29.34
L12.15,-25.8
L11.59,-22.75
L9.96,-18.14
L8.04,-13.61
L5.92,-9.32
L3.05,-4.46
L0.5,-0.67
L-3.83,4.96
L-6.8,8.22
L-10.95,12.44
L-13.89,14.78
L-17.75,17.75
L-21.26,19.98
L-23.56,20.76
L-25.72,21.3
L-27.89,21.61
L-28.38,20.62
L-29.02,19.74
L-27.85,17.68
L-27.81,16.44
L-25.87,14.21
L-22.89,11.66
L-18.57,8.72
L-14.35,6.2
L-10.98,4.36
L-5.6,2.02
L-0.78,0.25
L4.68,-1.35
L9.89,-2.55
L15.73,-3.51
L20.52,-3.9
L23.95,-3.79
L28.06,-3.54
L32.03,-3.01
L32.92,-2.06
L34.58,-1.1
L34.83,0.0
" style="stroke:#000;stroke-width:1pt;fill:#fac;" />

</svg>